<svg xmlns="http://www.w3.org/2000/svg" xmlns:xlink="http://www.w3.org/1999/xlink" width="500" zoomAndPan="magnify" viewBox="0 0 375 374.999991" height="500" preserveAspectRatio="xMidYMid meet" version="1.0"><defs><g/><clipPath id="a5c8e355c5"><path d="M 9.394531 160.175781 L 39.644531 160.175781 L 39.644531 203.851562 L 9.394531 203.851562 Z M 9.394531 160.175781 " clip-rule="nonzero"/></clipPath><clipPath id="1ba152ebf5"><path d="M 0.394531 0.175781 L 30.644531 0.175781 L 30.644531 43.851562 L 0.394531 43.851562 Z M 0.394531 0.175781 " clip-rule="nonzero"/></clipPath><clipPath id="0ff028e7e2"><rect x="0" width="31" y="0" height="44"/></clipPath><clipPath id="dc62152603"><rect x="0" width="196" y="0" height="52"/></clipPath><clipPath id="5e07815f8d"><path d="M 0.480469 37 L 1 37 L 1 38 L 0.480469 38 Z M 0.480469 37 " clip-rule="nonzero"/></clipPath><clipPath id="4eca30f990"><rect x="0" width="178" y="0" height="52"/></clipPath><clipPath id="fb40478b3b"><path d="M 0.320312 1 L 3 1 L 3 7 L 0.320312 7 Z M 0.320312 1 " clip-rule="nonzero"/></clipPath><clipPath id="73dbf45ad3"><path d="M 38 0.519531 L 39 0.519531 L 39 9 L 38 9 Z M 38 0.519531 " clip-rule="nonzero"/></clipPath><clipPath id="238bf0d67d"><path d="M 92 0.519531 L 94 0.519531 L 94 9 L 92 9 Z M 92 0.519531 " clip-rule="nonzero"/></clipPath><clipPath id="cf2526c322"><rect x="0" width="145" y="0" height="10"/></clipPath><clipPath id="f212c1b5ca"><rect x="0" width="32" y="0" height="52"/></clipPath></defs><g clip-path="url(#a5c8e355c5)"><g transform="matrix(1, 0, 0, 1, 9, 160)"><g clip-path="url(#0ff028e7e2)"><g clip-path="url(#1ba152ebf5)"><path fill="#7a0c12" d="M 0.394531 0.175781 L 30.644531 0.175781 L 30.644531 43.898438 L 0.394531 43.898438 Z M 0.394531 0.175781 " fill-opacity="1" fill-rule="nonzero"/></g></g></g></g><g transform="matrix(1, 0, 0, 1, 168, 164)"><g clip-path="url(#dc62152603)"><g fill="#ffffff" fill-opacity="1"><g transform="translate(1.033795, 36.907801)"><g><path d="M 2.453125 -33.640625 L 12.1875 -33.640625 C 16.863281 -33.640625 20.859375 -32.039062 24.171875 -28.84375 C 27.492188 -25.65625 29.15625 -21.65625 29.15625 -16.84375 C 29.15625 -12 27.503906 -7.976562 24.203125 -4.78125 C 20.898438 -1.59375 16.894531 0 12.1875 0 L 2.453125 0 Z M 10.109375 -6.84375 L 11.296875 -6.84375 C 14.097656 -6.84375 16.390625 -7.785156 18.171875 -9.671875 C 19.953125 -11.566406 20.851562 -13.941406 20.875 -16.796875 C 20.875 -19.648438 19.984375 -22.03125 18.203125 -23.9375 C 16.421875 -25.84375 14.117188 -26.796875 11.296875 -26.796875 L 10.109375 -26.796875 Z M 10.109375 -6.84375 "/></g></g></g><g fill="#ffffff" fill-opacity="1"><g transform="translate(32.356374, 36.907801)"><g><path d="M 21.703125 -33.640625 L 21.703125 -26.921875 L 10.109375 -26.921875 L 10.109375 -20.234375 L 21.203125 -20.234375 L 21.203125 -13.5 L 10.109375 -13.5 L 10.109375 -6.734375 L 21.703125 -6.734375 L 21.703125 0 L 2.453125 0 L 2.453125 -33.640625 Z M 21.703125 -33.640625 "/></g></g></g><g fill="#ffffff" fill-opacity="1"><g transform="translate(57.234973, 36.907801)"><g><path d="M 21.90625 -33.640625 L 21.90625 -26.921875 L 10.109375 -26.921875 L 10.109375 -20.234375 L 21 -20.234375 L 21 -13.5 L 10.109375 -13.5 L 10.109375 0 L 2.453125 0 L 2.453125 -33.640625 Z M 21.90625 -33.640625 "/></g></g></g><g fill="#ffffff" fill-opacity="1"><g transform="translate(81.583377, 36.907801)"><g><path d="M 21.703125 -33.640625 L 21.703125 -26.921875 L 10.109375 -26.921875 L 10.109375 -20.234375 L 21.203125 -20.234375 L 21.203125 -13.5 L 10.109375 -13.5 L 10.109375 -6.734375 L 21.703125 -6.734375 L 21.703125 0 L 2.453125 0 L 2.453125 -33.640625 Z M 21.703125 -33.640625 "/></g></g></g><g fill="#ffffff" fill-opacity="1"><g transform="translate(106.461976, 36.907801)"><g><path d="M 10.109375 -20.875 L 10.109375 0 L 2.453125 0 L 2.453125 -33.640625 L 10.109375 -33.640625 L 23.484375 -12.765625 L 23.578125 -12.765625 L 23.578125 -33.640625 L 31.234375 -33.640625 L 31.234375 0 L 23.578125 0 L 10.203125 -20.875 Z M 10.109375 -20.875 "/></g></g></g><g fill="#ffffff" fill-opacity="1"><g transform="translate(140.557907, 36.907801)"><g><path d="M 14.84375 -34.25 C 16.664062 -34.25 18.445312 -33.984375 20.1875 -33.453125 C 21.925781 -32.929688 23.21875 -32.410156 24.0625 -31.890625 L 25.28125 -31.078125 L 22.1875 -24.953125 C 21.9375 -25.117188 21.59375 -25.332031 21.15625 -25.59375 C 20.726562 -25.851562 19.914062 -26.195312 18.71875 -26.625 C 17.519531 -27.0625 16.40625 -27.28125 15.375 -27.28125 C 14.09375 -27.28125 13.101562 -27.007812 12.40625 -26.46875 C 11.71875 -25.925781 11.375 -25.191406 11.375 -24.265625 C 11.375 -23.804688 11.535156 -23.378906 11.859375 -22.984375 C 12.191406 -22.585938 12.75 -22.164062 13.53125 -21.71875 C 14.320312 -21.269531 15.015625 -20.910156 15.609375 -20.640625 C 16.210938 -20.367188 17.140625 -19.957031 18.390625 -19.40625 C 20.566406 -18.488281 22.421875 -17.234375 23.953125 -15.640625 C 25.492188 -14.046875 26.265625 -12.242188 26.265625 -10.234375 C 26.265625 -8.304688 25.914062 -6.617188 25.21875 -5.171875 C 24.53125 -3.734375 23.578125 -2.609375 22.359375 -1.796875 C 21.148438 -0.984375 19.8125 -0.378906 18.34375 0.015625 C 16.882812 0.410156 15.296875 0.609375 13.578125 0.609375 C 12.109375 0.609375 10.664062 0.457031 9.25 0.15625 C 7.84375 -0.132812 6.660156 -0.503906 5.703125 -0.953125 C 4.753906 -1.398438 3.898438 -1.84375 3.140625 -2.28125 C 2.378906 -2.71875 1.820312 -3.085938 1.46875 -3.390625 L 0.9375 -3.828125 L 4.765625 -10.28125 C 5.097656 -10.007812 5.546875 -9.660156 6.109375 -9.234375 C 6.679688 -8.816406 7.695312 -8.253906 9.15625 -7.546875 C 10.613281 -6.835938 11.898438 -6.484375 13.015625 -6.484375 C 16.242188 -6.484375 17.859375 -7.582031 17.859375 -9.78125 C 17.859375 -10.25 17.742188 -10.675781 17.515625 -11.0625 C 17.285156 -11.457031 16.878906 -11.851562 16.296875 -12.25 C 15.710938 -12.644531 15.191406 -12.957031 14.734375 -13.1875 C 14.285156 -13.425781 13.550781 -13.78125 12.53125 -14.25 C 11.519531 -14.726562 10.769531 -15.085938 10.28125 -15.328125 C 8.238281 -16.335938 6.660156 -17.597656 5.546875 -19.109375 C 4.429688 -20.617188 3.875 -22.242188 3.875 -23.984375 C 3.875 -26.992188 4.988281 -29.457031 7.21875 -31.375 C 9.445312 -33.289062 11.988281 -34.25 14.84375 -34.25 Z M 14.84375 -34.25 "/></g></g></g><g fill="#ffffff" fill-opacity="1"><g transform="translate(169.188702, 36.907801)"><g><path d="M 21.703125 -33.640625 L 21.703125 -26.921875 L 10.109375 -26.921875 L 10.109375 -20.234375 L 21.203125 -20.234375 L 21.203125 -13.5 L 10.109375 -13.5 L 10.109375 -6.734375 L 21.703125 -6.734375 L 21.703125 0 L 2.453125 0 L 2.453125 -33.640625 Z M 21.703125 -33.640625 "/></g></g></g></g></g><g transform="matrix(1, 0, 0, 1, 6, 163)"><g clip-path="url(#4eca30f990)"><g clip-path="url(#5e07815f8d)"><g fill="#ffffff" fill-opacity="1"><g transform="translate(0.699139, 37.179515)"><g/></g></g></g><g fill="#ffffff" fill-opacity="1"><g transform="translate(11.833331, 37.179515)"><g/></g></g><g fill="#ffffff" fill-opacity="1"><g transform="translate(22.967523, 37.179515)"><g/></g></g><g fill="#ffffff" fill-opacity="1"><g transform="translate(34.109605, 37.179515)"><g><path d="M 21.703125 -33.640625 L 21.703125 -26.921875 L 10.109375 -26.921875 L 10.109375 -20.234375 L 21.203125 -20.234375 L 21.203125 -13.5 L 10.109375 -13.5 L 10.109375 -6.734375 L 21.703125 -6.734375 L 21.703125 0 L 2.453125 0 L 2.453125 -33.640625 Z M 21.703125 -33.640625 "/></g></g></g><g fill="#ffffff" fill-opacity="1"><g transform="translate(57.764677, 37.179515)"><g><path d="M 10.109375 -20.875 L 10.109375 0 L 2.453125 0 L 2.453125 -33.640625 L 10.109375 -33.640625 L 23.484375 -12.765625 L 23.578125 -12.765625 L 23.578125 -33.640625 L 31.234375 -33.640625 L 31.234375 0 L 23.578125 0 L 10.203125 -20.875 Z M 10.109375 -20.875 "/></g></g></g><g fill="#ffffff" fill-opacity="1"><g transform="translate(91.452766, 37.179515)"><g><path d="M 2.453125 -33.640625 L 12.1875 -33.640625 C 16.863281 -33.640625 20.859375 -32.039062 24.171875 -28.84375 C 27.492188 -25.65625 29.15625 -21.65625 29.15625 -16.84375 C 29.15625 -12 27.503906 -7.976562 24.203125 -4.78125 C 20.898438 -1.59375 16.894531 0 12.1875 0 L 2.453125 0 Z M 10.109375 -6.84375 L 11.296875 -6.84375 C 14.097656 -6.84375 16.390625 -7.785156 18.171875 -9.671875 C 19.953125 -11.566406 20.851562 -13.941406 20.875 -16.796875 C 20.875 -19.648438 19.984375 -22.03125 18.203125 -23.9375 C 16.421875 -25.84375 14.117188 -26.796875 11.296875 -26.796875 L 10.109375 -26.796875 Z M 10.109375 -6.84375 "/></g></g></g><g fill="#ffffff" fill-opacity="1"><g transform="translate(121.551817, 37.179515)"><g><path d="M 21.703125 -33.640625 L 21.703125 -26.921875 L 10.109375 -26.921875 L 10.109375 -20.234375 L 21.203125 -20.234375 L 21.203125 -13.5 L 10.109375 -13.5 L 10.109375 -6.734375 L 21.703125 -6.734375 L 21.703125 0 L 2.453125 0 L 2.453125 -33.640625 Z M 21.703125 -33.640625 "/></g></g></g><g fill="#ffffff" fill-opacity="1"><g transform="translate(145.206888, 37.179515)"><g><path d="M 2.453125 -33.640625 L 14.484375 -33.640625 C 17.710938 -33.640625 20.347656 -32.773438 22.390625 -31.046875 C 24.429688 -29.328125 25.453125 -26.863281 25.453125 -23.65625 C 25.453125 -21.175781 24.832031 -19.097656 23.59375 -17.421875 C 22.351562 -15.753906 20.675781 -14.582031 18.5625 -13.90625 L 30.140625 0 L 20.390625 0 L 10.109375 -13.296875 L 10.109375 0 L 2.453125 0 Z M 10.109375 -18.71875 L 11.015625 -18.71875 C 11.722656 -18.71875 12.320312 -18.726562 12.8125 -18.75 C 13.300781 -18.78125 13.859375 -18.878906 14.484375 -19.046875 C 15.109375 -19.210938 15.609375 -19.441406 15.984375 -19.734375 C 16.367188 -20.035156 16.695312 -20.472656 16.96875 -21.046875 C 17.238281 -21.617188 17.375 -22.3125 17.375 -23.125 C 17.375 -23.9375 17.238281 -24.628906 16.96875 -25.203125 C 16.695312 -25.773438 16.367188 -26.207031 15.984375 -26.5 C 15.609375 -26.800781 15.109375 -27.035156 14.484375 -27.203125 C 13.859375 -27.367188 13.300781 -27.460938 12.8125 -27.484375 C 12.320312 -27.515625 11.722656 -27.53125 11.015625 -27.53125 L 10.109375 -27.53125 Z M 10.109375 -18.71875 "/></g></g></g></g></g><g transform="matrix(1, 0, 0, 1, 10, 203)"><g clip-path="url(#cf2526c322)"><g clip-path="url(#fb40478b3b)"><g fill="#ffffff" fill-opacity="1"><g transform="translate(0.440647, 6.78761)"><g><path d="M 1.640625 -4.03125 L 2.4375 -4.109375 C 2.4375 -4.265625 2.421875 -4.425781 2.390625 -4.59375 C 2.367188 -4.769531 2.316406 -4.929688 2.234375 -5.078125 C 2.148438 -5.222656 2.035156 -5.34375 1.890625 -5.4375 C 1.742188 -5.53125 1.550781 -5.578125 1.3125 -5.578125 C 1.113281 -5.566406 0.945312 -5.519531 0.8125 -5.4375 C 0.675781 -5.363281 0.566406 -5.269531 0.484375 -5.15625 C 0.398438 -5.03125 0.335938 -4.890625 0.296875 -4.734375 C 0.265625 -4.578125 0.25 -4.425781 0.25 -4.28125 C 0.25 -4.132812 0.269531 -3.988281 0.3125 -3.84375 C 0.394531 -3.550781 0.53125 -3.265625 0.71875 -2.984375 C 0.800781 -2.847656 0.882812 -2.71875 0.96875 -2.59375 C 1.0625 -2.46875 1.144531 -2.347656 1.21875 -2.234375 C 1.257812 -2.171875 1.296875 -2.113281 1.328125 -2.0625 C 1.359375 -2.007812 1.394531 -1.953125 1.4375 -1.890625 C 1.488281 -1.785156 1.535156 -1.679688 1.578125 -1.578125 C 1.617188 -1.472656 1.640625 -1.378906 1.640625 -1.296875 C 1.640625 -1.117188 1.613281 -0.972656 1.5625 -0.859375 C 1.519531 -0.742188 1.4375 -0.6875 1.3125 -0.6875 C 1.226562 -0.6875 1.160156 -0.710938 1.109375 -0.765625 C 1.054688 -0.816406 1.019531 -0.890625 1 -0.984375 C 0.96875 -1.066406 0.945312 -1.164062 0.9375 -1.28125 C 0.9375 -1.394531 0.9375 -1.507812 0.9375 -1.625 L 0.140625 -1.546875 C 0.140625 -1.335938 0.148438 -1.132812 0.171875 -0.9375 C 0.203125 -0.75 0.257812 -0.582031 0.34375 -0.4375 C 0.425781 -0.28125 0.539062 -0.15625 0.6875 -0.0625 C 0.84375 0.0195312 1.050781 0.0625 1.3125 0.0625 C 1.53125 0.0625 1.710938 0.0234375 1.859375 -0.046875 C 2.003906 -0.128906 2.117188 -0.234375 2.203125 -0.359375 C 2.285156 -0.492188 2.34375 -0.640625 2.375 -0.796875 C 2.414062 -0.960938 2.4375 -1.140625 2.4375 -1.328125 C 2.4375 -1.472656 2.410156 -1.617188 2.359375 -1.765625 C 2.316406 -1.910156 2.265625 -2.050781 2.203125 -2.1875 C 2.128906 -2.332031 2.046875 -2.472656 1.953125 -2.609375 C 1.867188 -2.742188 1.78125 -2.882812 1.6875 -3.03125 C 1.601562 -3.144531 1.519531 -3.253906 1.4375 -3.359375 C 1.363281 -3.472656 1.300781 -3.582031 1.25 -3.6875 C 1.1875 -3.789062 1.132812 -3.890625 1.09375 -3.984375 C 1.0625 -4.085938 1.046875 -4.1875 1.046875 -4.28125 C 1.046875 -4.4375 1.0625 -4.566406 1.09375 -4.671875 C 1.132812 -4.773438 1.207031 -4.828125 1.3125 -4.828125 C 1.382812 -4.828125 1.441406 -4.800781 1.484375 -4.75 C 1.523438 -4.707031 1.554688 -4.648438 1.578125 -4.578125 C 1.609375 -4.492188 1.625 -4.40625 1.625 -4.3125 C 1.632812 -4.21875 1.640625 -4.125 1.640625 -4.03125 Z M 1.640625 -4.03125 "/></g></g></g></g><g fill="#ffffff" fill-opacity="1"><g transform="translate(5.068145, 6.78761)"><g><path d="M 1.21875 -5.109375 L 0.453125 -5.109375 L 0.453125 -4.109375 L 0.078125 -4.109375 L 0.078125 -3.421875 L 0.453125 -3.421875 L 0.453125 -1.3125 C 0.453125 -1.195312 0.457031 -1.0625 0.46875 -0.90625 C 0.488281 -0.75 0.519531 -0.597656 0.5625 -0.453125 C 0.625 -0.304688 0.710938 -0.179688 0.828125 -0.078125 C 0.941406 0.015625 1.109375 0.0625 1.328125 0.0625 C 1.441406 0.0625 1.539062 0.0507812 1.625 0.03125 C 1.644531 0.03125 1.660156 0.0234375 1.671875 0.015625 C 1.691406 0.015625 1.710938 0.0078125 1.734375 0 L 1.734375 -0.734375 C 1.710938 -0.734375 1.695312 -0.734375 1.6875 -0.734375 C 1.675781 -0.734375 1.660156 -0.726562 1.640625 -0.71875 C 1.617188 -0.71875 1.585938 -0.710938 1.546875 -0.703125 C 1.515625 -0.703125 1.484375 -0.703125 1.453125 -0.703125 C 1.390625 -0.703125 1.34375 -0.726562 1.3125 -0.78125 C 1.28125 -0.832031 1.257812 -0.890625 1.25 -0.953125 C 1.226562 -1.023438 1.21875 -1.097656 1.21875 -1.171875 C 1.21875 -1.242188 1.21875 -1.3125 1.21875 -1.375 L 1.21875 -3.421875 L 1.734375 -3.421875 L 1.734375 -4.109375 L 1.21875 -4.109375 Z M 1.21875 -5.109375 "/></g></g></g><g fill="#ffffff" fill-opacity="1"><g transform="translate(8.96064, 6.78761)"><g><path d="M 1.8125 -3.328125 L 1.8125 -4.15625 C 1.675781 -4.15625 1.5625 -4.132812 1.46875 -4.09375 C 1.375 -4.050781 1.296875 -4 1.234375 -3.9375 C 1.171875 -3.882812 1.125 -3.828125 1.09375 -3.765625 C 1.070312 -3.710938 1.0625 -3.671875 1.0625 -3.640625 L 1.0625 -4.109375 L 0.296875 -4.109375 L 0.296875 0 L 1.0625 0 L 1.0625 -2.84375 C 1.0625 -2.914062 1.070312 -2.984375 1.09375 -3.046875 C 1.113281 -3.109375 1.15625 -3.164062 1.21875 -3.21875 C 1.28125 -3.28125 1.34375 -3.316406 1.40625 -3.328125 C 1.476562 -3.347656 1.546875 -3.359375 1.609375 -3.359375 C 1.640625 -3.359375 1.671875 -3.351562 1.703125 -3.34375 C 1.742188 -3.34375 1.78125 -3.335938 1.8125 -3.328125 Z M 1.8125 -3.328125 "/></g></g></g><g fill="#ffffff" fill-opacity="1"><g transform="translate(12.86064, 6.78761)"><g><path d="M 1.453125 -3.125 L 1.453125 -2.671875 C 1.429688 -2.640625 1.390625 -2.601562 1.328125 -2.5625 C 1.265625 -2.519531 1.1875 -2.476562 1.09375 -2.4375 C 0.988281 -2.382812 0.882812 -2.320312 0.78125 -2.25 C 0.675781 -2.175781 0.582031 -2.082031 0.5 -1.96875 C 0.40625 -1.851562 0.328125 -1.710938 0.265625 -1.546875 C 0.210938 -1.378906 0.1875 -1.179688 0.1875 -0.953125 C 0.1875 -0.734375 0.207031 -0.554688 0.25 -0.421875 C 0.289062 -0.296875 0.34375 -0.195312 0.40625 -0.125 C 0.46875 -0.0507812 0.535156 -0.00390625 0.609375 0.015625 C 0.679688 0.046875 0.738281 0.0625 0.78125 0.0625 C 0.863281 0.0625 0.9375 0.046875 1 0.015625 C 1.070312 -0.00390625 1.132812 -0.0351562 1.1875 -0.078125 C 1.238281 -0.117188 1.28125 -0.160156 1.3125 -0.203125 C 1.34375 -0.253906 1.367188 -0.296875 1.390625 -0.328125 L 1.453125 -0.328125 C 1.453125 -0.304688 1.453125 -0.253906 1.453125 -0.171875 C 1.460938 -0.0976562 1.484375 -0.0390625 1.515625 0 L 2.25 0 C 2.238281 -0.09375 2.226562 -0.1875 2.21875 -0.28125 C 2.207031 -0.382812 2.203125 -0.53125 2.203125 -0.71875 L 2.203125 -3.234375 C 2.203125 -3.367188 2.175781 -3.492188 2.125 -3.609375 C 2.082031 -3.722656 2.015625 -3.820312 1.921875 -3.90625 C 1.742188 -4.070312 1.53125 -4.15625 1.28125 -4.15625 C 0.988281 -4.15625 0.75 -4.050781 0.5625 -3.84375 C 0.46875 -3.738281 0.394531 -3.617188 0.34375 -3.484375 C 0.289062 -3.359375 0.265625 -3.21875 0.265625 -3.0625 L 0.265625 -2.890625 L 1.015625 -2.890625 C 1.015625 -2.921875 1.015625 -2.953125 1.015625 -2.984375 C 1.015625 -3.015625 1.015625 -3.050781 1.015625 -3.09375 C 1.015625 -3.125 1.015625 -3.15625 1.015625 -3.1875 C 1.023438 -3.21875 1.03125 -3.25 1.03125 -3.28125 C 1.039062 -3.34375 1.0625 -3.394531 1.09375 -3.4375 C 1.125 -3.476562 1.171875 -3.5 1.234375 -3.5 C 1.328125 -3.5 1.390625 -3.457031 1.421875 -3.375 C 1.429688 -3.34375 1.4375 -3.300781 1.4375 -3.25 C 1.445312 -3.207031 1.453125 -3.164062 1.453125 -3.125 Z M 1.453125 -1.984375 L 1.453125 -0.9375 C 1.453125 -0.863281 1.421875 -0.800781 1.359375 -0.75 C 1.296875 -0.707031 1.21875 -0.6875 1.125 -0.6875 C 1.082031 -0.6875 1.046875 -0.695312 1.015625 -0.71875 C 0.992188 -0.75 0.972656 -0.789062 0.953125 -0.84375 C 0.941406 -0.882812 0.929688 -0.925781 0.921875 -0.96875 C 0.921875 -1.007812 0.921875 -1.039062 0.921875 -1.0625 C 0.921875 -1.257812 0.960938 -1.441406 1.046875 -1.609375 C 1.128906 -1.773438 1.265625 -1.898438 1.453125 -1.984375 Z M 1.453125 -1.984375 "/></g></g></g><g fill="#ffffff" fill-opacity="1"><g transform="translate(17.338135, 6.78761)"><g><path d="M 1.21875 -5.109375 L 0.453125 -5.109375 L 0.453125 -4.109375 L 0.078125 -4.109375 L 0.078125 -3.421875 L 0.453125 -3.421875 L 0.453125 -1.3125 C 0.453125 -1.195312 0.457031 -1.0625 0.46875 -0.90625 C 0.488281 -0.75 0.519531 -0.597656 0.5625 -0.453125 C 0.625 -0.304688 0.710938 -0.179688 0.828125 -0.078125 C 0.941406 0.015625 1.109375 0.0625 1.328125 0.0625 C 1.441406 0.0625 1.539062 0.0507812 1.625 0.03125 C 1.644531 0.03125 1.660156 0.0234375 1.671875 0.015625 C 1.691406 0.015625 1.710938 0.0078125 1.734375 0 L 1.734375 -0.734375 C 1.710938 -0.734375 1.695312 -0.734375 1.6875 -0.734375 C 1.675781 -0.734375 1.660156 -0.726562 1.640625 -0.71875 C 1.617188 -0.71875 1.585938 -0.710938 1.546875 -0.703125 C 1.515625 -0.703125 1.484375 -0.703125 1.453125 -0.703125 C 1.390625 -0.703125 1.34375 -0.726562 1.3125 -0.78125 C 1.28125 -0.832031 1.257812 -0.890625 1.25 -0.953125 C 1.226562 -1.023438 1.21875 -1.097656 1.21875 -1.171875 C 1.21875 -1.242188 1.21875 -1.3125 1.21875 -1.375 L 1.21875 -3.421875 L 1.734375 -3.421875 L 1.734375 -4.109375 L 1.21875 -4.109375 Z M 1.21875 -5.109375 "/></g></g></g><g fill="#ffffff" fill-opacity="1"><g transform="translate(21.23063, 6.78761)"><g><path d="M 2.203125 -1.46875 L 1.5 -1.46875 L 1.5 -1.015625 C 1.5 -0.929688 1.488281 -0.863281 1.46875 -0.8125 C 1.445312 -0.757812 1.414062 -0.710938 1.375 -0.671875 C 1.34375 -0.628906 1.289062 -0.609375 1.21875 -0.609375 C 1.15625 -0.609375 1.101562 -0.628906 1.0625 -0.671875 C 0.988281 -0.753906 0.945312 -0.867188 0.9375 -1.015625 L 0.9375 -1.90625 L 2.203125 -1.90625 L 2.203125 -3.109375 C 2.191406 -3.203125 2.175781 -3.289062 2.15625 -3.375 C 2.132812 -3.46875 2.109375 -3.550781 2.078125 -3.625 C 2.015625 -3.757812 1.914062 -3.878906 1.78125 -3.984375 C 1.65625 -4.097656 1.46875 -4.15625 1.21875 -4.15625 C 0.96875 -4.15625 0.78125 -4.101562 0.65625 -4 C 0.394531 -3.78125 0.253906 -3.472656 0.234375 -3.078125 L 0.234375 -1.015625 C 0.242188 -0.921875 0.257812 -0.828125 0.28125 -0.734375 C 0.300781 -0.640625 0.328125 -0.554688 0.359375 -0.484375 C 0.421875 -0.347656 0.515625 -0.222656 0.640625 -0.109375 C 0.773438 0.00390625 0.96875 0.0625 1.21875 0.0625 C 1.46875 0.0625 1.65625 0.00390625 1.78125 -0.109375 C 1.914062 -0.210938 2.015625 -0.335938 2.078125 -0.484375 C 2.148438 -0.628906 2.191406 -0.800781 2.203125 -1 Z M 0.9375 -2.5 L 0.9375 -3.078125 C 0.945312 -3.117188 0.953125 -3.15625 0.953125 -3.1875 C 0.960938 -3.226562 0.972656 -3.265625 0.984375 -3.296875 C 1.003906 -3.347656 1.03125 -3.394531 1.0625 -3.4375 C 1.101562 -3.476562 1.15625 -3.5 1.21875 -3.5 C 1.289062 -3.5 1.347656 -3.476562 1.390625 -3.4375 C 1.460938 -3.351562 1.5 -3.234375 1.5 -3.078125 L 1.5 -2.5 Z M 0.9375 -2.5 "/></g></g></g><g fill="#ffffff" fill-opacity="1"><g transform="translate(25.70063, 6.78761)"><g><path d="M 2.15625 -1.984375 L 2.15625 -3.140625 C 2.15625 -3.148438 2.15625 -3.160156 2.15625 -3.171875 C 2.15625 -3.191406 2.148438 -3.207031 2.140625 -3.21875 C 2.140625 -3.226562 2.140625 -3.253906 2.140625 -3.296875 C 2.128906 -3.304688 2.125 -3.320312 2.125 -3.34375 C 2.125 -3.363281 2.117188 -3.378906 2.109375 -3.390625 C 2.160156 -3.421875 2.222656 -3.441406 2.296875 -3.453125 C 2.367188 -3.472656 2.457031 -3.484375 2.5625 -3.484375 L 2.5625 -4.15625 C 2.5 -4.15625 2.4375 -4.140625 2.375 -4.109375 C 2.3125 -4.085938 2.253906 -4.054688 2.203125 -4.015625 C 2.140625 -3.972656 2.082031 -3.929688 2.03125 -3.890625 C 1.988281 -3.847656 1.957031 -3.8125 1.9375 -3.78125 C 1.863281 -3.882812 1.765625 -3.972656 1.640625 -4.046875 C 1.523438 -4.117188 1.367188 -4.15625 1.171875 -4.15625 C 0.929688 -4.15625 0.75 -4.101562 0.625 -4 C 0.5 -3.882812 0.398438 -3.753906 0.328125 -3.609375 C 0.265625 -3.472656 0.226562 -3.3125 0.21875 -3.125 L 0.21875 -2 C 0.21875 -1.945312 0.222656 -1.890625 0.234375 -1.828125 C 0.242188 -1.773438 0.257812 -1.722656 0.28125 -1.671875 C 0.300781 -1.566406 0.335938 -1.460938 0.390625 -1.359375 C 0.453125 -1.265625 0.539062 -1.179688 0.65625 -1.109375 C 0.53125 -1.046875 0.425781 -0.957031 0.34375 -0.84375 C 0.289062 -0.789062 0.25 -0.734375 0.21875 -0.671875 C 0.195312 -0.609375 0.1875 -0.550781 0.1875 -0.5 C 0.1875 -0.332031 0.226562 -0.207031 0.3125 -0.125 C 0.40625 -0.0390625 0.515625 0.015625 0.640625 0.046875 C 0.566406 0.0859375 0.492188 0.125 0.421875 0.15625 C 0.347656 0.195312 0.285156 0.25 0.234375 0.3125 C 0.179688 0.351562 0.132812 0.40625 0.09375 0.46875 C 0.0625 0.53125 0.046875 0.597656 0.046875 0.671875 C 0.046875 0.828125 0.0703125 0.953125 0.125 1.046875 C 0.1875 1.148438 0.269531 1.234375 0.375 1.296875 C 0.488281 1.347656 0.617188 1.390625 0.765625 1.421875 C 0.910156 1.453125 1.078125 1.46875 1.265625 1.46875 C 1.421875 1.46875 1.570312 1.445312 1.71875 1.40625 C 1.875 1.375 2.015625 1.320312 2.140625 1.25 C 2.265625 1.164062 2.363281 1.054688 2.4375 0.921875 C 2.519531 0.785156 2.5625 0.617188 2.5625 0.421875 C 2.5625 0.242188 2.523438 0.0976562 2.453125 -0.015625 C 2.390625 -0.128906 2.3125 -0.222656 2.21875 -0.296875 C 2.113281 -0.367188 2 -0.421875 1.875 -0.453125 C 1.75 -0.492188 1.625 -0.519531 1.5 -0.53125 C 1.4375 -0.539062 1.367188 -0.550781 1.296875 -0.5625 C 1.234375 -0.570312 1.175781 -0.585938 1.125 -0.609375 C 1 -0.648438 0.9375 -0.707031 0.9375 -0.78125 C 0.9375 -0.851562 0.96875 -0.914062 1.03125 -0.96875 C 1.039062 -0.96875 1.050781 -0.96875 1.0625 -0.96875 C 1.082031 -0.96875 1.097656 -0.96875 1.109375 -0.96875 C 1.117188 -0.96875 1.128906 -0.96875 1.140625 -0.96875 C 1.148438 -0.96875 1.160156 -0.96875 1.171875 -0.96875 C 1.410156 -0.96875 1.597656 -1.019531 1.734375 -1.125 C 1.992188 -1.320312 2.132812 -1.609375 2.15625 -1.984375 Z M 1.40625 -3.09375 L 1.40625 -1.96875 C 1.40625 -1.894531 1.398438 -1.832031 1.390625 -1.78125 C 1.367188 -1.726562 1.34375 -1.679688 1.3125 -1.640625 C 1.289062 -1.609375 1.242188 -1.59375 1.171875 -1.59375 C 1.117188 -1.59375 1.078125 -1.613281 1.046875 -1.65625 C 0.984375 -1.726562 0.953125 -1.832031 0.953125 -1.96875 L 0.953125 -3.09375 C 0.953125 -3.15625 0.957031 -3.21875 0.96875 -3.28125 C 0.976562 -3.320312 1 -3.363281 1.03125 -3.40625 C 1.070312 -3.445312 1.117188 -3.46875 1.171875 -3.46875 C 1.242188 -3.46875 1.289062 -3.445312 1.3125 -3.40625 C 1.375 -3.320312 1.40625 -3.21875 1.40625 -3.09375 Z M 1.0625 0.1875 L 1.453125 0.265625 C 1.546875 0.273438 1.617188 0.289062 1.671875 0.3125 C 1.722656 0.332031 1.765625 0.351562 1.796875 0.375 C 1.816406 0.40625 1.832031 0.429688 1.84375 0.453125 C 1.851562 0.484375 1.859375 0.519531 1.859375 0.5625 C 1.859375 0.601562 1.835938 0.640625 1.796875 0.671875 C 1.753906 0.710938 1.707031 0.742188 1.65625 0.765625 C 1.550781 0.804688 1.425781 0.828125 1.28125 0.828125 C 1.101562 0.828125 0.972656 0.800781 0.890625 0.75 C 0.816406 0.695312 0.78125 0.628906 0.78125 0.546875 C 0.78125 0.460938 0.804688 0.390625 0.859375 0.328125 C 0.910156 0.273438 0.976562 0.226562 1.0625 0.1875 Z M 1.0625 0.1875 "/></g></g></g><g fill="#ffffff" fill-opacity="1"><g transform="translate(30.320632, 6.78761)"><g><path d="M 0.125 0.78125 L 0.125 1.453125 C 0.164062 1.460938 0.207031 1.46875 0.25 1.46875 C 0.289062 1.46875 0.332031 1.46875 0.375 1.46875 C 0.382812 1.46875 0.394531 1.46875 0.40625 1.46875 C 0.425781 1.46875 0.441406 1.46875 0.453125 1.46875 C 0.609375 1.46875 0.742188 1.429688 0.859375 1.359375 C 0.984375 1.296875 1.085938 1.210938 1.171875 1.109375 C 1.265625 0.992188 1.335938 0.867188 1.390625 0.734375 C 1.453125 0.597656 1.488281 0.457031 1.5 0.3125 L 2.234375 -4.109375 L 1.5 -4.109375 L 1.1875 -1.578125 L 1.171875 -1.375 L 1.140625 -1.375 L 1.125 -1.578125 L 0.828125 -4.109375 L 0.09375 -4.109375 L 0.78125 0.125 C 0.78125 0.207031 0.769531 0.28125 0.75 0.34375 C 0.707031 0.5 0.628906 0.625 0.515625 0.71875 C 0.453125 0.757812 0.378906 0.78125 0.296875 0.78125 C 0.222656 0.789062 0.179688 0.789062 0.171875 0.78125 C 0.140625 0.78125 0.125 0.78125 0.125 0.78125 Z M 0.125 0.78125 "/></g></g></g><g fill="#ffffff" fill-opacity="1"><g transform="translate(34.700634, 6.78761)"><g/></g></g><g clip-path="url(#73dbf45ad3)"><g fill="#ffffff" fill-opacity="1"><g transform="translate(37.910625, 6.78761)"><g><path d="M 0.296875 1.875 L 1 1.875 L 1 -6.1875 L 0.296875 -6.1875 Z M 0.296875 1.875 "/></g></g></g></g><g fill="#ffffff" fill-opacity="1"><g transform="translate(41.270618, 6.78761)"><g/></g></g><g fill="#ffffff" fill-opacity="1"><g transform="translate(44.480608, 6.78761)"><g><path d="M 1.59375 -3.53125 L 2.40625 -3.53125 L 2.40625 -4.375 C 2.394531 -4.601562 2.347656 -4.800781 2.265625 -4.96875 C 2.234375 -5.039062 2.191406 -5.113281 2.140625 -5.1875 C 2.085938 -5.257812 2.023438 -5.328125 1.953125 -5.390625 C 1.878906 -5.441406 1.789062 -5.484375 1.6875 -5.515625 C 1.582031 -5.554688 1.460938 -5.578125 1.328125 -5.578125 C 1.191406 -5.578125 1.070312 -5.554688 0.96875 -5.515625 C 0.863281 -5.484375 0.773438 -5.441406 0.703125 -5.390625 C 0.617188 -5.328125 0.550781 -5.257812 0.5 -5.1875 C 0.457031 -5.113281 0.414062 -5.039062 0.375 -4.96875 C 0.300781 -4.800781 0.257812 -4.601562 0.25 -4.375 L 0.25 -1.125 C 0.238281 -0.90625 0.269531 -0.707031 0.34375 -0.53125 C 0.363281 -0.457031 0.398438 -0.382812 0.453125 -0.3125 C 0.503906 -0.238281 0.5625 -0.175781 0.625 -0.125 C 0.695312 -0.0625 0.773438 -0.015625 0.859375 0.015625 C 0.953125 0.046875 1.066406 0.0625 1.203125 0.0625 C 1.328125 0.0625 1.441406 0.03125 1.546875 -0.03125 C 1.660156 -0.09375 1.753906 -0.171875 1.828125 -0.265625 L 1.921875 0 L 2.40625 0 L 2.40625 -2.75 L 1.28125 -2.75 L 1.28125 -2.0625 L 1.59375 -2.0625 L 1.59375 -1.0625 C 1.59375 -0.976562 1.582031 -0.910156 1.5625 -0.859375 C 1.550781 -0.804688 1.523438 -0.757812 1.484375 -0.71875 C 1.453125 -0.675781 1.398438 -0.65625 1.328125 -0.65625 C 1.265625 -0.65625 1.210938 -0.675781 1.171875 -0.71875 C 1.097656 -0.800781 1.0625 -0.914062 1.0625 -1.0625 L 1.0625 -4.375 C 1.0625 -4.457031 1.070312 -4.523438 1.09375 -4.578125 C 1.101562 -4.628906 1.125 -4.675781 1.15625 -4.71875 C 1.195312 -4.757812 1.253906 -4.78125 1.328125 -4.78125 C 1.398438 -4.78125 1.457031 -4.757812 1.5 -4.71875 C 1.5625 -4.632812 1.59375 -4.519531 1.59375 -4.375 Z M 1.59375 -3.53125 "/></g></g></g><g fill="#ffffff" fill-opacity="1"><g transform="translate(49.235613, 6.78761)"><g><path d="M 2.171875 -1 L 2.171875 -3.109375 C 2.171875 -3.203125 2.160156 -3.289062 2.140625 -3.375 C 2.117188 -3.46875 2.09375 -3.550781 2.0625 -3.625 C 2 -3.757812 1.898438 -3.878906 1.765625 -3.984375 C 1.628906 -4.097656 1.441406 -4.15625 1.203125 -4.15625 C 0.953125 -4.15625 0.765625 -4.101562 0.640625 -4 C 0.503906 -3.882812 0.40625 -3.75 0.34375 -3.59375 C 0.28125 -3.445312 0.242188 -3.273438 0.234375 -3.078125 L 0.234375 -1.015625 C 0.234375 -0.921875 0.242188 -0.828125 0.265625 -0.734375 C 0.285156 -0.640625 0.316406 -0.554688 0.359375 -0.484375 C 0.410156 -0.347656 0.5 -0.222656 0.625 -0.109375 C 0.757812 0.00390625 0.953125 0.0625 1.203125 0.0625 C 1.453125 0.0625 1.640625 0.00390625 1.765625 -0.109375 C 2.015625 -0.304688 2.148438 -0.601562 2.171875 -1 Z M 1.46875 -3.078125 L 1.46875 -1.015625 C 1.46875 -0.941406 1.457031 -0.875 1.4375 -0.8125 C 1.425781 -0.757812 1.398438 -0.710938 1.359375 -0.671875 C 1.328125 -0.628906 1.273438 -0.609375 1.203125 -0.609375 C 1.140625 -0.609375 1.085938 -0.628906 1.046875 -0.671875 C 0.972656 -0.753906 0.9375 -0.867188 0.9375 -1.015625 L 0.9375 -3.078125 C 0.9375 -3.160156 0.945312 -3.234375 0.96875 -3.296875 C 0.976562 -3.347656 1 -3.394531 1.03125 -3.4375 C 1.070312 -3.476562 1.128906 -3.5 1.203125 -3.5 C 1.273438 -3.5 1.328125 -3.476562 1.359375 -3.4375 C 1.429688 -3.351562 1.46875 -3.234375 1.46875 -3.078125 Z M 1.46875 -3.078125 "/></g></g></g><g fill="#ffffff" fill-opacity="1"><g transform="translate(53.698107, 6.78761)"><g><path d="M 0.734375 0 L 1.484375 0 L 2.140625 -4.109375 L 1.40625 -4.109375 L 1.15625 -1.71875 L 1.125 -1.46875 L 1.078125 -1.46875 L 1.046875 -1.71875 L 0.796875 -4.109375 L 0.0625 -4.109375 Z M 0.734375 0 "/></g></g></g><g fill="#ffffff" fill-opacity="1"><g transform="translate(57.958108, 6.78761)"><g><path d="M 2.203125 -1.46875 L 1.5 -1.46875 L 1.5 -1.015625 C 1.5 -0.929688 1.488281 -0.863281 1.46875 -0.8125 C 1.445312 -0.757812 1.414062 -0.710938 1.375 -0.671875 C 1.34375 -0.628906 1.289062 -0.609375 1.21875 -0.609375 C 1.15625 -0.609375 1.101562 -0.628906 1.0625 -0.671875 C 0.988281 -0.753906 0.945312 -0.867188 0.9375 -1.015625 L 0.9375 -1.90625 L 2.203125 -1.90625 L 2.203125 -3.109375 C 2.191406 -3.203125 2.175781 -3.289062 2.15625 -3.375 C 2.132812 -3.46875 2.109375 -3.550781 2.078125 -3.625 C 2.015625 -3.757812 1.914062 -3.878906 1.78125 -3.984375 C 1.65625 -4.097656 1.46875 -4.15625 1.21875 -4.15625 C 0.96875 -4.15625 0.78125 -4.101562 0.65625 -4 C 0.394531 -3.78125 0.253906 -3.472656 0.234375 -3.078125 L 0.234375 -1.015625 C 0.242188 -0.921875 0.257812 -0.828125 0.28125 -0.734375 C 0.300781 -0.640625 0.328125 -0.554688 0.359375 -0.484375 C 0.421875 -0.347656 0.515625 -0.222656 0.640625 -0.109375 C 0.773438 0.00390625 0.96875 0.0625 1.21875 0.0625 C 1.46875 0.0625 1.65625 0.00390625 1.78125 -0.109375 C 1.914062 -0.210938 2.015625 -0.335938 2.078125 -0.484375 C 2.148438 -0.628906 2.191406 -0.800781 2.203125 -1 Z M 0.9375 -2.5 L 0.9375 -3.078125 C 0.945312 -3.117188 0.953125 -3.15625 0.953125 -3.1875 C 0.960938 -3.226562 0.972656 -3.265625 0.984375 -3.296875 C 1.003906 -3.347656 1.03125 -3.394531 1.0625 -3.4375 C 1.101562 -3.476562 1.15625 -3.5 1.21875 -3.5 C 1.289062 -3.5 1.347656 -3.476562 1.390625 -3.4375 C 1.460938 -3.351562 1.5 -3.234375 1.5 -3.078125 L 1.5 -2.5 Z M 0.9375 -2.5 "/></g></g></g><g fill="#ffffff" fill-opacity="1"><g transform="translate(62.428108, 6.78761)"><g><path d="M 1.8125 -3.328125 L 1.8125 -4.15625 C 1.675781 -4.15625 1.5625 -4.132812 1.46875 -4.09375 C 1.375 -4.050781 1.296875 -4 1.234375 -3.9375 C 1.171875 -3.882812 1.125 -3.828125 1.09375 -3.765625 C 1.070312 -3.710938 1.0625 -3.671875 1.0625 -3.640625 L 1.0625 -4.109375 L 0.296875 -4.109375 L 0.296875 0 L 1.0625 0 L 1.0625 -2.84375 C 1.0625 -2.914062 1.070312 -2.984375 1.09375 -3.046875 C 1.113281 -3.109375 1.15625 -3.164062 1.21875 -3.21875 C 1.28125 -3.28125 1.34375 -3.316406 1.40625 -3.328125 C 1.476562 -3.347656 1.546875 -3.359375 1.609375 -3.359375 C 1.640625 -3.359375 1.671875 -3.351562 1.703125 -3.34375 C 1.742188 -3.34375 1.78125 -3.335938 1.8125 -3.328125 Z M 1.8125 -3.328125 "/></g></g></g><g fill="#ffffff" fill-opacity="1"><g transform="translate(66.328108, 6.78761)"><g><path d="M 1.0625 0 L 1.0625 -3.234375 C 1.070312 -3.253906 1.082031 -3.269531 1.09375 -3.28125 C 1.101562 -3.300781 1.113281 -3.316406 1.125 -3.328125 C 1.144531 -3.359375 1.171875 -3.378906 1.203125 -3.390625 C 1.234375 -3.410156 1.269531 -3.421875 1.3125 -3.421875 C 1.351562 -3.421875 1.390625 -3.410156 1.421875 -3.390625 C 1.460938 -3.378906 1.484375 -3.332031 1.484375 -3.25 L 1.484375 0 L 2.25 0 L 2.25 -3.359375 C 2.25 -3.441406 2.234375 -3.53125 2.203125 -3.625 C 2.179688 -3.71875 2.148438 -3.804688 2.109375 -3.890625 C 2.066406 -3.960938 2.007812 -4.023438 1.9375 -4.078125 C 1.863281 -4.128906 1.773438 -4.15625 1.671875 -4.15625 C 1.609375 -4.15625 1.546875 -4.140625 1.484375 -4.109375 C 1.410156 -4.078125 1.34375 -4.035156 1.28125 -3.984375 C 1.226562 -3.929688 1.179688 -3.882812 1.140625 -3.84375 C 1.097656 -3.789062 1.070312 -3.757812 1.0625 -3.75 L 1.0625 -4.109375 L 0.296875 -4.109375 L 0.296875 0 Z M 1.0625 0 "/></g></g></g><g fill="#ffffff" fill-opacity="1"><g transform="translate(70.910603, 6.78761)"><g><path d="M 1.453125 -3.125 L 1.453125 -2.671875 C 1.429688 -2.640625 1.390625 -2.601562 1.328125 -2.5625 C 1.265625 -2.519531 1.1875 -2.476562 1.09375 -2.4375 C 0.988281 -2.382812 0.882812 -2.320312 0.78125 -2.25 C 0.675781 -2.175781 0.582031 -2.082031 0.5 -1.96875 C 0.40625 -1.851562 0.328125 -1.710938 0.265625 -1.546875 C 0.210938 -1.378906 0.1875 -1.179688 0.1875 -0.953125 C 0.1875 -0.734375 0.207031 -0.554688 0.25 -0.421875 C 0.289062 -0.296875 0.34375 -0.195312 0.40625 -0.125 C 0.46875 -0.0507812 0.535156 -0.00390625 0.609375 0.015625 C 0.679688 0.046875 0.738281 0.0625 0.78125 0.0625 C 0.863281 0.0625 0.9375 0.046875 1 0.015625 C 1.070312 -0.00390625 1.132812 -0.0351562 1.1875 -0.078125 C 1.238281 -0.117188 1.28125 -0.160156 1.3125 -0.203125 C 1.34375 -0.253906 1.367188 -0.296875 1.390625 -0.328125 L 1.453125 -0.328125 C 1.453125 -0.304688 1.453125 -0.253906 1.453125 -0.171875 C 1.460938 -0.0976562 1.484375 -0.0390625 1.515625 0 L 2.25 0 C 2.238281 -0.09375 2.226562 -0.1875 2.21875 -0.28125 C 2.207031 -0.382812 2.203125 -0.53125 2.203125 -0.71875 L 2.203125 -3.234375 C 2.203125 -3.367188 2.175781 -3.492188 2.125 -3.609375 C 2.082031 -3.722656 2.015625 -3.820312 1.921875 -3.90625 C 1.742188 -4.070312 1.53125 -4.15625 1.28125 -4.15625 C 0.988281 -4.15625 0.75 -4.050781 0.5625 -3.84375 C 0.46875 -3.738281 0.394531 -3.617188 0.34375 -3.484375 C 0.289062 -3.359375 0.265625 -3.21875 0.265625 -3.0625 L 0.265625 -2.890625 L 1.015625 -2.890625 C 1.015625 -2.921875 1.015625 -2.953125 1.015625 -2.984375 C 1.015625 -3.015625 1.015625 -3.050781 1.015625 -3.09375 C 1.015625 -3.125 1.015625 -3.15625 1.015625 -3.1875 C 1.023438 -3.21875 1.03125 -3.25 1.03125 -3.28125 C 1.039062 -3.34375 1.0625 -3.394531 1.09375 -3.4375 C 1.125 -3.476562 1.171875 -3.5 1.234375 -3.5 C 1.328125 -3.5 1.390625 -3.457031 1.421875 -3.375 C 1.429688 -3.34375 1.4375 -3.300781 1.4375 -3.25 C 1.445312 -3.207031 1.453125 -3.164062 1.453125 -3.125 Z M 1.453125 -1.984375 L 1.453125 -0.9375 C 1.453125 -0.863281 1.421875 -0.800781 1.359375 -0.75 C 1.296875 -0.707031 1.21875 -0.6875 1.125 -0.6875 C 1.082031 -0.6875 1.046875 -0.695312 1.015625 -0.71875 C 0.992188 -0.75 0.972656 -0.789062 0.953125 -0.84375 C 0.941406 -0.882812 0.929688 -0.925781 0.921875 -0.96875 C 0.921875 -1.007812 0.921875 -1.039062 0.921875 -1.0625 C 0.921875 -1.257812 0.960938 -1.441406 1.046875 -1.609375 C 1.128906 -1.773438 1.265625 -1.898438 1.453125 -1.984375 Z M 1.453125 -1.984375 "/></g></g></g><g fill="#ffffff" fill-opacity="1"><g transform="translate(75.388098, 6.78761)"><g><path d="M 1.0625 0 L 1.0625 -3.234375 C 1.070312 -3.253906 1.082031 -3.269531 1.09375 -3.28125 C 1.101562 -3.300781 1.113281 -3.316406 1.125 -3.328125 C 1.144531 -3.359375 1.171875 -3.378906 1.203125 -3.390625 C 1.234375 -3.410156 1.269531 -3.421875 1.3125 -3.421875 C 1.351562 -3.421875 1.390625 -3.410156 1.421875 -3.390625 C 1.460938 -3.378906 1.484375 -3.332031 1.484375 -3.25 L 1.484375 0 L 2.25 0 L 2.25 -3.359375 C 2.25 -3.441406 2.234375 -3.53125 2.203125 -3.625 C 2.179688 -3.71875 2.148438 -3.804688 2.109375 -3.890625 C 2.066406 -3.960938 2.007812 -4.023438 1.9375 -4.078125 C 1.863281 -4.128906 1.773438 -4.15625 1.671875 -4.15625 C 1.609375 -4.15625 1.546875 -4.140625 1.484375 -4.109375 C 1.410156 -4.078125 1.34375 -4.035156 1.28125 -3.984375 C 1.226562 -3.929688 1.179688 -3.882812 1.140625 -3.84375 C 1.097656 -3.789062 1.070312 -3.757812 1.0625 -3.75 L 1.0625 -4.109375 L 0.296875 -4.109375 L 0.296875 0 Z M 1.0625 0 "/></g></g></g><g fill="#ffffff" fill-opacity="1"><g transform="translate(79.970593, 6.78761)"><g><path d="M 1 -0.9375 L 1 -3.15625 C 1 -3.226562 1.007812 -3.300781 1.03125 -3.375 C 1.050781 -3.445312 1.109375 -3.484375 1.203125 -3.484375 C 1.285156 -3.484375 1.34375 -3.457031 1.375 -3.40625 C 1.40625 -3.363281 1.421875 -3.28125 1.421875 -3.15625 L 1.421875 -2.65625 L 2.1875 -2.65625 L 2.1875 -2.984375 C 2.1875 -3.210938 2.164062 -3.398438 2.125 -3.546875 C 2.082031 -3.703125 2.019531 -3.828125 1.9375 -3.921875 C 1.851562 -4.003906 1.75 -4.0625 1.625 -4.09375 C 1.507812 -4.132812 1.367188 -4.15625 1.203125 -4.15625 C 1.066406 -4.15625 0.9375 -4.132812 0.8125 -4.09375 C 0.695312 -4.0625 0.597656 -4 0.515625 -3.90625 C 0.429688 -3.800781 0.363281 -3.671875 0.3125 -3.515625 C 0.257812 -3.367188 0.234375 -3.179688 0.234375 -2.953125 L 0.234375 -1.15625 C 0.234375 -0.925781 0.257812 -0.734375 0.3125 -0.578125 C 0.363281 -0.421875 0.429688 -0.296875 0.515625 -0.203125 C 0.597656 -0.109375 0.695312 -0.0390625 0.8125 0 C 0.9375 0.0390625 1.066406 0.0625 1.203125 0.0625 C 1.367188 0.0625 1.507812 0.0390625 1.625 0 C 1.75 -0.03125 1.851562 -0.09375 1.9375 -0.1875 C 2.019531 -0.28125 2.082031 -0.398438 2.125 -0.546875 C 2.164062 -0.691406 2.1875 -0.882812 2.1875 -1.125 L 2.1875 -1.515625 L 1.421875 -1.515625 L 1.421875 -0.9375 C 1.421875 -0.8125 1.40625 -0.722656 1.375 -0.671875 C 1.34375 -0.628906 1.285156 -0.609375 1.203125 -0.609375 C 1.109375 -0.609375 1.050781 -0.644531 1.03125 -0.71875 C 1.007812 -0.789062 1 -0.863281 1 -0.9375 Z M 1 -0.9375 "/></g></g></g><g fill="#ffffff" fill-opacity="1"><g transform="translate(84.388093, 6.78761)"><g><path d="M 2.203125 -1.46875 L 1.5 -1.46875 L 1.5 -1.015625 C 1.5 -0.929688 1.488281 -0.863281 1.46875 -0.8125 C 1.445312 -0.757812 1.414062 -0.710938 1.375 -0.671875 C 1.34375 -0.628906 1.289062 -0.609375 1.21875 -0.609375 C 1.15625 -0.609375 1.101562 -0.628906 1.0625 -0.671875 C 0.988281 -0.753906 0.945312 -0.867188 0.9375 -1.015625 L 0.9375 -1.90625 L 2.203125 -1.90625 L 2.203125 -3.109375 C 2.191406 -3.203125 2.175781 -3.289062 2.15625 -3.375 C 2.132812 -3.46875 2.109375 -3.550781 2.078125 -3.625 C 2.015625 -3.757812 1.914062 -3.878906 1.78125 -3.984375 C 1.65625 -4.097656 1.46875 -4.15625 1.21875 -4.15625 C 0.96875 -4.15625 0.78125 -4.101562 0.65625 -4 C 0.394531 -3.78125 0.253906 -3.472656 0.234375 -3.078125 L 0.234375 -1.015625 C 0.242188 -0.921875 0.257812 -0.828125 0.28125 -0.734375 C 0.300781 -0.640625 0.328125 -0.554688 0.359375 -0.484375 C 0.421875 -0.347656 0.515625 -0.222656 0.640625 -0.109375 C 0.773438 0.00390625 0.96875 0.0625 1.21875 0.0625 C 1.46875 0.0625 1.65625 0.00390625 1.78125 -0.109375 C 1.914062 -0.210938 2.015625 -0.335938 2.078125 -0.484375 C 2.148438 -0.628906 2.191406 -0.800781 2.203125 -1 Z M 0.9375 -2.5 L 0.9375 -3.078125 C 0.945312 -3.117188 0.953125 -3.15625 0.953125 -3.1875 C 0.960938 -3.226562 0.972656 -3.265625 0.984375 -3.296875 C 1.003906 -3.347656 1.03125 -3.394531 1.0625 -3.4375 C 1.101562 -3.476562 1.15625 -3.5 1.21875 -3.5 C 1.289062 -3.5 1.347656 -3.476562 1.390625 -3.4375 C 1.460938 -3.351562 1.5 -3.234375 1.5 -3.078125 L 1.5 -2.5 Z M 0.9375 -2.5 "/></g></g></g><g fill="#ffffff" fill-opacity="1"><g transform="translate(88.858093, 6.78761)"><g/></g></g><g clip-path="url(#238bf0d67d)"><g fill="#ffffff" fill-opacity="1"><g transform="translate(92.068083, 6.78761)"><g><path d="M 0.296875 1.875 L 1 1.875 L 1 -6.1875 L 0.296875 -6.1875 Z M 0.296875 1.875 "/></g></g></g></g><g fill="#ffffff" fill-opacity="1"><g transform="translate(95.430566, 6.78761)"><g/></g></g><g fill="#ffffff" fill-opacity="1"><g transform="translate(98.640556, 6.78761)"><g/></g></g><g fill="#ffffff" fill-opacity="1"><g transform="translate(101.856326, 6.78761)"><g><path d="M 0.296875 -5.515625 L 0.296875 0 L 1.109375 0 L 1.109375 -2.203125 C 1.285156 -2.203125 1.457031 -2.226562 1.625 -2.28125 C 1.789062 -2.34375 1.941406 -2.4375 2.078125 -2.5625 C 2.210938 -2.695312 2.320312 -2.867188 2.40625 -3.078125 C 2.488281 -3.285156 2.53125 -3.546875 2.53125 -3.859375 C 2.53125 -4.171875 2.488281 -4.4375 2.40625 -4.65625 C 2.320312 -4.875 2.210938 -5.046875 2.078125 -5.171875 C 1.941406 -5.296875 1.789062 -5.382812 1.625 -5.4375 C 1.457031 -5.488281 1.285156 -5.515625 1.109375 -5.515625 Z M 1.109375 -3.03125 L 1.109375 -4.6875 C 1.359375 -4.6875 1.523438 -4.625 1.609375 -4.5 C 1.648438 -4.425781 1.675781 -4.332031 1.6875 -4.21875 C 1.707031 -4.113281 1.71875 -3.984375 1.71875 -3.828125 C 1.71875 -3.671875 1.707031 -3.539062 1.6875 -3.4375 C 1.675781 -3.34375 1.648438 -3.265625 1.609375 -3.203125 C 1.523438 -3.085938 1.359375 -3.03125 1.109375 -3.03125 Z M 1.109375 -3.03125 "/></g></g></g><g fill="#ffffff" fill-opacity="1"><g transform="translate(106.551325, 6.78761)"><g><path d="M 1.8125 -3.328125 L 1.8125 -4.15625 C 1.675781 -4.15625 1.5625 -4.132812 1.46875 -4.09375 C 1.375 -4.050781 1.296875 -4 1.234375 -3.9375 C 1.171875 -3.882812 1.125 -3.828125 1.09375 -3.765625 C 1.070312 -3.710938 1.0625 -3.671875 1.0625 -3.640625 L 1.0625 -4.109375 L 0.296875 -4.109375 L 0.296875 0 L 1.0625 0 L 1.0625 -2.84375 C 1.0625 -2.914062 1.070312 -2.984375 1.09375 -3.046875 C 1.113281 -3.109375 1.15625 -3.164062 1.21875 -3.21875 C 1.28125 -3.28125 1.34375 -3.316406 1.40625 -3.328125 C 1.476562 -3.347656 1.546875 -3.359375 1.609375 -3.359375 C 1.640625 -3.359375 1.671875 -3.351562 1.703125 -3.34375 C 1.742188 -3.34375 1.78125 -3.335938 1.8125 -3.328125 Z M 1.8125 -3.328125 "/></g></g></g><g fill="#ffffff" fill-opacity="1"><g transform="translate(110.451325, 6.78761)"><g><path d="M 2.171875 -1 L 2.171875 -3.109375 C 2.171875 -3.203125 2.160156 -3.289062 2.140625 -3.375 C 2.117188 -3.46875 2.09375 -3.550781 2.0625 -3.625 C 2 -3.757812 1.898438 -3.878906 1.765625 -3.984375 C 1.628906 -4.097656 1.441406 -4.15625 1.203125 -4.15625 C 0.953125 -4.15625 0.765625 -4.101562 0.640625 -4 C 0.503906 -3.882812 0.40625 -3.75 0.34375 -3.59375 C 0.28125 -3.445312 0.242188 -3.273438 0.234375 -3.078125 L 0.234375 -1.015625 C 0.234375 -0.921875 0.242188 -0.828125 0.265625 -0.734375 C 0.285156 -0.640625 0.316406 -0.554688 0.359375 -0.484375 C 0.410156 -0.347656 0.5 -0.222656 0.625 -0.109375 C 0.757812 0.00390625 0.953125 0.0625 1.203125 0.0625 C 1.453125 0.0625 1.640625 0.00390625 1.765625 -0.109375 C 2.015625 -0.304688 2.148438 -0.601562 2.171875 -1 Z M 1.46875 -3.078125 L 1.46875 -1.015625 C 1.46875 -0.941406 1.457031 -0.875 1.4375 -0.8125 C 1.425781 -0.757812 1.398438 -0.710938 1.359375 -0.671875 C 1.328125 -0.628906 1.273438 -0.609375 1.203125 -0.609375 C 1.140625 -0.609375 1.085938 -0.628906 1.046875 -0.671875 C 0.972656 -0.753906 0.9375 -0.867188 0.9375 -1.015625 L 0.9375 -3.078125 C 0.9375 -3.160156 0.945312 -3.234375 0.96875 -3.296875 C 0.976562 -3.347656 1 -3.394531 1.03125 -3.4375 C 1.070312 -3.476562 1.128906 -3.5 1.203125 -3.5 C 1.273438 -3.5 1.328125 -3.476562 1.359375 -3.4375 C 1.429688 -3.351562 1.46875 -3.234375 1.46875 -3.078125 Z M 1.46875 -3.078125 "/></g></g></g><g fill="#ffffff" fill-opacity="1"><g transform="translate(114.91382, 6.78761)"><g><path d="M 1.21875 -5.109375 L 0.453125 -5.109375 L 0.453125 -4.109375 L 0.078125 -4.109375 L 0.078125 -3.421875 L 0.453125 -3.421875 L 0.453125 -1.3125 C 0.453125 -1.195312 0.457031 -1.0625 0.46875 -0.90625 C 0.488281 -0.75 0.519531 -0.597656 0.5625 -0.453125 C 0.625 -0.304688 0.710938 -0.179688 0.828125 -0.078125 C 0.941406 0.015625 1.109375 0.0625 1.328125 0.0625 C 1.441406 0.0625 1.539062 0.0507812 1.625 0.03125 C 1.644531 0.03125 1.660156 0.0234375 1.671875 0.015625 C 1.691406 0.015625 1.710938 0.0078125 1.734375 0 L 1.734375 -0.734375 C 1.710938 -0.734375 1.695312 -0.734375 1.6875 -0.734375 C 1.675781 -0.734375 1.660156 -0.726562 1.640625 -0.71875 C 1.617188 -0.71875 1.585938 -0.710938 1.546875 -0.703125 C 1.515625 -0.703125 1.484375 -0.703125 1.453125 -0.703125 C 1.390625 -0.703125 1.34375 -0.726562 1.3125 -0.78125 C 1.28125 -0.832031 1.257812 -0.890625 1.25 -0.953125 C 1.226562 -1.023438 1.21875 -1.097656 1.21875 -1.171875 C 1.21875 -1.242188 1.21875 -1.3125 1.21875 -1.375 L 1.21875 -3.421875 L 1.734375 -3.421875 L 1.734375 -4.109375 L 1.21875 -4.109375 Z M 1.21875 -5.109375 "/></g></g></g><g fill="#ffffff" fill-opacity="1"><g transform="translate(118.806314, 6.78761)"><g><path d="M 2.203125 -1.46875 L 1.5 -1.46875 L 1.5 -1.015625 C 1.5 -0.929688 1.488281 -0.863281 1.46875 -0.8125 C 1.445312 -0.757812 1.414062 -0.710938 1.375 -0.671875 C 1.34375 -0.628906 1.289062 -0.609375 1.21875 -0.609375 C 1.15625 -0.609375 1.101562 -0.628906 1.0625 -0.671875 C 0.988281 -0.753906 0.945312 -0.867188 0.9375 -1.015625 L 0.9375 -1.90625 L 2.203125 -1.90625 L 2.203125 -3.109375 C 2.191406 -3.203125 2.175781 -3.289062 2.15625 -3.375 C 2.132812 -3.46875 2.109375 -3.550781 2.078125 -3.625 C 2.015625 -3.757812 1.914062 -3.878906 1.78125 -3.984375 C 1.65625 -4.097656 1.46875 -4.15625 1.21875 -4.15625 C 0.96875 -4.15625 0.78125 -4.101562 0.65625 -4 C 0.394531 -3.78125 0.253906 -3.472656 0.234375 -3.078125 L 0.234375 -1.015625 C 0.242188 -0.921875 0.257812 -0.828125 0.28125 -0.734375 C 0.300781 -0.640625 0.328125 -0.554688 0.359375 -0.484375 C 0.421875 -0.347656 0.515625 -0.222656 0.640625 -0.109375 C 0.773438 0.00390625 0.96875 0.0625 1.21875 0.0625 C 1.46875 0.0625 1.65625 0.00390625 1.78125 -0.109375 C 1.914062 -0.210938 2.015625 -0.335938 2.078125 -0.484375 C 2.148438 -0.628906 2.191406 -0.800781 2.203125 -1 Z M 0.9375 -2.5 L 0.9375 -3.078125 C 0.945312 -3.117188 0.953125 -3.15625 0.953125 -3.1875 C 0.960938 -3.226562 0.972656 -3.265625 0.984375 -3.296875 C 1.003906 -3.347656 1.03125 -3.394531 1.0625 -3.4375 C 1.101562 -3.476562 1.15625 -3.5 1.21875 -3.5 C 1.289062 -3.5 1.347656 -3.476562 1.390625 -3.4375 C 1.460938 -3.351562 1.5 -3.234375 1.5 -3.078125 L 1.5 -2.5 Z M 0.9375 -2.5 "/></g></g></g><g fill="#ffffff" fill-opacity="1"><g transform="translate(123.276314, 6.78761)"><g><path d="M 1 -0.9375 L 1 -3.15625 C 1 -3.226562 1.007812 -3.300781 1.03125 -3.375 C 1.050781 -3.445312 1.109375 -3.484375 1.203125 -3.484375 C 1.285156 -3.484375 1.34375 -3.457031 1.375 -3.40625 C 1.40625 -3.363281 1.421875 -3.28125 1.421875 -3.15625 L 1.421875 -2.65625 L 2.1875 -2.65625 L 2.1875 -2.984375 C 2.1875 -3.210938 2.164062 -3.398438 2.125 -3.546875 C 2.082031 -3.703125 2.019531 -3.828125 1.9375 -3.921875 C 1.851562 -4.003906 1.75 -4.0625 1.625 -4.09375 C 1.507812 -4.132812 1.367188 -4.15625 1.203125 -4.15625 C 1.066406 -4.15625 0.9375 -4.132812 0.8125 -4.09375 C 0.695312 -4.0625 0.597656 -4 0.515625 -3.90625 C 0.429688 -3.800781 0.363281 -3.671875 0.3125 -3.515625 C 0.257812 -3.367188 0.234375 -3.179688 0.234375 -2.953125 L 0.234375 -1.15625 C 0.234375 -0.925781 0.257812 -0.734375 0.3125 -0.578125 C 0.363281 -0.421875 0.429688 -0.296875 0.515625 -0.203125 C 0.597656 -0.109375 0.695312 -0.0390625 0.8125 0 C 0.9375 0.0390625 1.066406 0.0625 1.203125 0.0625 C 1.367188 0.0625 1.507812 0.0390625 1.625 0 C 1.75 -0.03125 1.851562 -0.09375 1.9375 -0.1875 C 2.019531 -0.28125 2.082031 -0.398438 2.125 -0.546875 C 2.164062 -0.691406 2.1875 -0.882812 2.1875 -1.125 L 2.1875 -1.515625 L 1.421875 -1.515625 L 1.421875 -0.9375 C 1.421875 -0.8125 1.40625 -0.722656 1.375 -0.671875 C 1.34375 -0.628906 1.285156 -0.609375 1.203125 -0.609375 C 1.109375 -0.609375 1.050781 -0.644531 1.03125 -0.71875 C 1.007812 -0.789062 1 -0.863281 1 -0.9375 Z M 1 -0.9375 "/></g></g></g><g fill="#ffffff" fill-opacity="1"><g transform="translate(127.693814, 6.78761)"><g><path d="M 1.21875 -5.109375 L 0.453125 -5.109375 L 0.453125 -4.109375 L 0.078125 -4.109375 L 0.078125 -3.421875 L 0.453125 -3.421875 L 0.453125 -1.3125 C 0.453125 -1.195312 0.457031 -1.0625 0.46875 -0.90625 C 0.488281 -0.75 0.519531 -0.597656 0.5625 -0.453125 C 0.625 -0.304688 0.710938 -0.179688 0.828125 -0.078125 C 0.941406 0.015625 1.109375 0.0625 1.328125 0.0625 C 1.441406 0.0625 1.539062 0.0507812 1.625 0.03125 C 1.644531 0.03125 1.660156 0.0234375 1.671875 0.015625 C 1.691406 0.015625 1.710938 0.0078125 1.734375 0 L 1.734375 -0.734375 C 1.710938 -0.734375 1.695312 -0.734375 1.6875 -0.734375 C 1.675781 -0.734375 1.660156 -0.726562 1.640625 -0.71875 C 1.617188 -0.71875 1.585938 -0.710938 1.546875 -0.703125 C 1.515625 -0.703125 1.484375 -0.703125 1.453125 -0.703125 C 1.390625 -0.703125 1.34375 -0.726562 1.3125 -0.78125 C 1.28125 -0.832031 1.257812 -0.890625 1.25 -0.953125 C 1.226562 -1.023438 1.21875 -1.097656 1.21875 -1.171875 C 1.21875 -1.242188 1.21875 -1.3125 1.21875 -1.375 L 1.21875 -3.421875 L 1.734375 -3.421875 L 1.734375 -4.109375 L 1.21875 -4.109375 Z M 1.21875 -5.109375 "/></g></g></g><g fill="#ffffff" fill-opacity="1"><g transform="translate(131.586309, 6.78761)"><g><path d="M 0.296875 -5.515625 L 0.296875 -4.75 L 1.0625 -4.75 L 1.0625 -5.515625 Z M 0.296875 0 L 1.0625 0 L 1.0625 -4.109375 L 0.296875 -4.109375 Z M 0.296875 0 "/></g></g></g><g fill="#ffffff" fill-opacity="1"><g transform="translate(134.998802, 6.78761)"><g><path d="M 2.171875 -1 L 2.171875 -3.109375 C 2.171875 -3.203125 2.160156 -3.289062 2.140625 -3.375 C 2.117188 -3.46875 2.09375 -3.550781 2.0625 -3.625 C 2 -3.757812 1.898438 -3.878906 1.765625 -3.984375 C 1.628906 -4.097656 1.441406 -4.15625 1.203125 -4.15625 C 0.953125 -4.15625 0.765625 -4.101562 0.640625 -4 C 0.503906 -3.882812 0.40625 -3.75 0.34375 -3.59375 C 0.28125 -3.445312 0.242188 -3.273438 0.234375 -3.078125 L 0.234375 -1.015625 C 0.234375 -0.921875 0.242188 -0.828125 0.265625 -0.734375 C 0.285156 -0.640625 0.316406 -0.554688 0.359375 -0.484375 C 0.410156 -0.347656 0.5 -0.222656 0.625 -0.109375 C 0.757812 0.00390625 0.953125 0.0625 1.203125 0.0625 C 1.453125 0.0625 1.640625 0.00390625 1.765625 -0.109375 C 2.015625 -0.304688 2.148438 -0.601562 2.171875 -1 Z M 1.46875 -3.078125 L 1.46875 -1.015625 C 1.46875 -0.941406 1.457031 -0.875 1.4375 -0.8125 C 1.425781 -0.757812 1.398438 -0.710938 1.359375 -0.671875 C 1.328125 -0.628906 1.273438 -0.609375 1.203125 -0.609375 C 1.140625 -0.609375 1.085938 -0.628906 1.046875 -0.671875 C 0.972656 -0.753906 0.9375 -0.867188 0.9375 -1.015625 L 0.9375 -3.078125 C 0.9375 -3.160156 0.945312 -3.234375 0.96875 -3.296875 C 0.976562 -3.347656 1 -3.394531 1.03125 -3.4375 C 1.070312 -3.476562 1.128906 -3.5 1.203125 -3.5 C 1.273438 -3.5 1.328125 -3.476562 1.359375 -3.4375 C 1.429688 -3.351562 1.46875 -3.234375 1.46875 -3.078125 Z M 1.46875 -3.078125 "/></g></g></g><g fill="#ffffff" fill-opacity="1"><g transform="translate(139.461296, 6.78761)"><g><path d="M 1.0625 0 L 1.0625 -3.234375 C 1.070312 -3.253906 1.082031 -3.269531 1.09375 -3.28125 C 1.101562 -3.300781 1.113281 -3.316406 1.125 -3.328125 C 1.144531 -3.359375 1.171875 -3.378906 1.203125 -3.390625 C 1.234375 -3.410156 1.269531 -3.421875 1.3125 -3.421875 C 1.351562 -3.421875 1.390625 -3.410156 1.421875 -3.390625 C 1.460938 -3.378906 1.484375 -3.332031 1.484375 -3.25 L 1.484375 0 L 2.25 0 L 2.25 -3.359375 C 2.25 -3.441406 2.234375 -3.53125 2.203125 -3.625 C 2.179688 -3.71875 2.148438 -3.804688 2.109375 -3.890625 C 2.066406 -3.960938 2.007812 -4.023438 1.9375 -4.078125 C 1.863281 -4.128906 1.773438 -4.15625 1.671875 -4.15625 C 1.609375 -4.15625 1.546875 -4.140625 1.484375 -4.109375 C 1.410156 -4.078125 1.34375 -4.035156 1.28125 -3.984375 C 1.226562 -3.929688 1.179688 -3.882812 1.140625 -3.84375 C 1.097656 -3.789062 1.070312 -3.757812 1.0625 -3.75 L 1.0625 -4.109375 L 0.296875 -4.109375 L 0.296875 0 Z M 1.0625 0 "/></g></g></g></g></g><g transform="matrix(1, 0, 0, 1, 9, 164)"><g clip-path="url(#f212c1b5ca)"><g fill="#000000" fill-opacity="1"><g transform="translate(0.394405, 36.110881)"><g><path d="M 2.421875 -33.328125 L 14.34375 -33.328125 C 17.550781 -33.328125 20.164062 -32.472656 22.1875 -30.765625 C 24.207031 -29.054688 25.21875 -26.613281 25.21875 -23.4375 C 25.21875 -20.988281 24.601562 -18.929688 23.375 -17.265625 C 22.144531 -15.609375 20.484375 -14.445312 18.390625 -13.78125 L 29.859375 0 L 20.203125 0 L 10.015625 -13.171875 L 10.015625 0 L 2.421875 0 Z M 10.015625 -18.546875 L 10.90625 -18.546875 C 11.601562 -18.546875 12.195312 -18.554688 12.6875 -18.578125 C 13.175781 -18.609375 13.726562 -18.703125 14.34375 -18.859375 C 14.96875 -19.023438 15.46875 -19.253906 15.84375 -19.546875 C 16.21875 -19.847656 16.539062 -20.28125 16.8125 -20.84375 C 17.082031 -21.414062 17.21875 -22.101562 17.21875 -22.90625 C 17.21875 -23.71875 17.082031 -24.40625 16.8125 -24.96875 C 16.539062 -25.53125 16.21875 -25.957031 15.84375 -26.25 C 15.46875 -26.550781 14.96875 -26.78125 14.34375 -26.9375 C 13.726562 -27.101562 13.175781 -27.203125 12.6875 -27.234375 C 12.195312 -27.265625 11.601562 -27.28125 10.90625 -27.28125 L 10.015625 -27.28125 Z M 10.015625 -18.546875 "/></g></g></g></g></g><path fill="#000000" d="M 171.78125 160.175781 L 171.78125 164.675781 L 170.28125 164.675781 L 170.28125 160.175781 M 171.78125 166.175781 L 171.78125 170.675781 L 170.28125 170.675781 L 170.28125 166.175781 M 171.78125 172.175781 L 171.78125 176.675781 L 170.28125 176.675781 L 170.28125 172.175781 M 171.78125 178.175781 L 171.78125 182.675781 L 170.28125 182.675781 L 170.28125 178.175781 M 171.78125 184.175781 L 171.78125 188.675781 L 170.28125 188.675781 L 170.28125 184.175781 M 171.78125 190.175781 L 171.78125 194.675781 L 170.28125 194.675781 L 170.28125 190.175781 M 171.78125 196.175781 L 171.78125 200.675781 L 170.28125 200.675781 L 170.28125 196.175781 M 171.78125 202.175781 L 171.78125 206.675781 L 170.28125 206.675781 L 170.28125 202.175781 M 171.78125 208.175781 L 171.78125 212.675781 L 170.28125 212.675781 L 170.28125 208.175781 M 171.78125 214.175781 L 171.78125 214.824219 L 170.28125 214.824219 L 170.28125 214.175781 " fill-opacity="1" fill-rule="nonzero"/></svg>